#define iconify_width  22
#define iconify_height 20
static unsigned char iconify_bits[] = {
 0xf0,0xc0,0xc3,0xf0,0xc0,0xc3,0x0c,0x33,0xcc,0x0c,0x33,0xcc,
 0x03,0x0c,0xf0,0x03,0x0c,0xf0,0x03,0x00,0xf0,0x03,0x00,0xf0,
 0x03,0x00,0xf0,0x03,0x00,0xf0,0x0c,0x00,0xcc,0x0c,0x00,0xcc,
 0x30,0x00,0xc3,0x30,0x00,0xc3,0xc0,0xc0,0xc0,0xc0,0xc0,0xc0,
 0x00,0x33,0xc0,0x00,0x33,0xc0,0x00,0x0c,0xc0,0x00,0x0c,0xc0};
