#define max_disabled_width  22
#define max_disabled_height 20
static unsigned char max_disabled_bits[] = {
 0xf0,0xc0,0xc3,0xf0,0xc0,0xc3,0xfc,0x33,0xcc,0xfc,0x33,0xcc,
 0xff,0x0f,0xf0,0xff,0x0f,0xf0,0xff,0x0f,0xf0,0xff,0x07,0xf0,
 0xff,0x07,0xf0,0xff,0x07,0xf0,0xfc,0x07,0xcc,0xfc,0x07,0xcc,
 0xf0,0x07,0xc3,0xf0,0x07,0xc3,0xc0,0xc7,0xc0,0xc0,0xc7,0xc0,
 0x00,0x37,0xc0,0x00,0x37,0xc0,0x00,0x0c,0xc0,0x00,0x0c,0xc0};
