#define close_width  22
#define close_height 20
static unsigned char close_bits[] = {
 0xf0,0xc0,0xc3,0xf0,0xc0,0xc3,0xfc,0xf3,0xcf,0xfc,0xf3,0xcf,
 0xff,0xff,0xff,0xff,0xff,0xff,0xff,0xff,0xff,0xff,0xff,0xff,
 0xff,0xff,0xff,0xff,0xff,0xff,0xfc,0xff,0xcf,0xfc,0xff,0xcf,
 0xf0,0xff,0xc3,0xf0,0xff,0xc3,0xc0,0xff,0xc0,0xc0,0xff,0xc0,
 0x00,0x3f,0xc0,0x00,0x3f,0xc0,0x00,0x0c,0xc0,0x00,0x0c,0xc0};
